<?xml version="1.0" encoding="UTF-8"?>
<!DOCTYPE svg PUBLIC "-//W3C//DTD SVG 1.1//EN" "http://www.w3.org/Graphics/SVG/1.1/DTD/svg11.dtd">
<svg xmlns="http://www.w3.org/2000/svg" version="1.1" width="610px" height="80px" style="shape-rendering:geometricPrecision; text-rendering:geometricPrecision; image-rendering:optimizeQuality; fill-rule:evenodd; clip-rule:evenodd" xmlns:xlink="http://www.w3.org/1999/xlink">
<g><path style="opacity:0.982" fill="#ec5420" d="M 185.5,79.5 C 175.5,79.5 165.5,79.5 155.5,79.5C 125.979,75.1905 114.146,58.1905 120,28.5C 124.207,13.6345 134.04,5.13451 149.5,3C 166.317,0.488535 182.983,1.1552 199.5,5C 218.435,13.3653 225.935,27.8653 222,48.5C 220.043,62.1304 212.543,71.2971 199.5,76C 194.705,77.1989 190.038,78.3655 185.5,79.5 Z M 163.5,25.5 C 171.813,24.7517 179.813,25.9183 187.5,29C 192.951,35.2174 193.784,42.0507 190,49.5C 188.048,51.8936 185.548,53.3936 182.5,54C 172.048,56.6843 162.048,55.6843 152.5,51C 148.5,44 148.5,37 152.5,30C 155.979,27.7911 159.646,26.2911 163.5,25.5 Z"/></g>
<g><path style="opacity:0.979" fill="#ec5420" d="M 337.5,79.5 C 332.5,79.5 327.5,79.5 322.5,79.5C 321.997,76.1542 321.33,72.8208 320.5,69.5C 313.826,74.5076 306.492,77.8409 298.5,79.5C 289.5,79.5 280.5,79.5 271.5,79.5C 241.618,74.7848 229.785,57.4515 236,27.5C 238.98,17.1849 245.48,10.0182 255.5,6C 260.677,4.03916 266.01,2.70582 271.5,2C 283.543,1.13483 295.543,1.46816 307.5,3C 324.27,5.60721 334.27,15.1072 337.5,31.5C 326.828,31.6665 316.161,31.4998 305.5,31C 299.885,26.9705 293.552,25.1372 286.5,25.5C 267.602,24.6657 261.435,32.999 268,50.5C 271.336,53.1694 275.169,54.6694 279.5,55C 287.215,55.7619 294.881,55.4286 302.5,54C 304.332,53.2515 305.999,52.2515 307.5,51C 300.5,50.6667 293.5,50.3333 286.5,50C 285.533,45.5986 285.2,41.0986 285.5,36.5C 302.833,36.5 320.167,36.5 337.5,36.5C 337.5,50.8333 337.5,65.1667 337.5,79.5 Z"/></g>
<g><path style="opacity:0.981" fill="#ec5420" d="M 570.5,79.5 C 560.5,79.5 550.5,79.5 540.5,79.5C 512.808,75.9678 500.642,60.3011 504,32.5C 507.236,15.5983 517.403,5.76498 534.5,3C 548.494,1.02114 562.494,1.02114 576.5,3C 591.96,5.13451 601.793,13.6345 606,28.5C 611.854,58.1905 600.021,75.1905 570.5,79.5 Z M 548.5,25.5 C 557.356,24.5528 565.69,26.0528 573.5,30C 580.759,47.6184 574.759,56.1184 555.5,55.5C 549.571,55.5475 543.904,54.3809 538.5,52C 531.924,44.3145 531.924,36.6479 538.5,29C 541.85,27.5137 545.184,26.347 548.5,25.5 Z"/></g>
<g><path style="opacity:0.976" fill="#ec5420" d="M 3.5,2.5 C 26.1691,2.33337 48.8358,2.50004 71.5,3C 93.6068,5.61048 105.273,18.1105 106.5,40.5C 105.643,61.5142 94.9767,74.0142 74.5,78C 50.8357,78.5 27.169,78.6666 3.5,78.5C 3.5,53.1667 3.5,27.8333 3.5,2.5 Z M 33.5,27.5 C 45.1714,27.3335 56.8381,27.5001 68.5,28C 76.1801,33.2178 78.0134,40.0511 74,48.5C 72.7727,50.7261 70.9393,52.2261 68.5,53C 56.8381,53.4999 45.1714,53.6665 33.5,53.5C 33.5,44.8333 33.5,36.1667 33.5,27.5 Z"/></g>
<g><path style="opacity:0.99" fill="#ec5420" d="M 356.5,2.5 C 368.838,2.33346 381.171,2.50012 393.5,3C 403,15.1667 412.5,27.3333 422,39.5C 431.713,27.2418 441.547,15.0751 451.5,3C 463.829,2.50012 476.162,2.33346 488.5,2.5C 488.5,27.8333 488.5,53.1667 488.5,78.5C 478.5,78.5 468.5,78.5 458.5,78.5C 458.667,65.4957 458.5,52.4957 458,39.5C 448.622,52.4224 439.122,65.2557 429.5,78C 424.5,78.6667 419.5,78.6667 414.5,78C 405.333,65.5 396.167,53 387,40.5C 386.667,52.8333 386.333,65.1667 386,77.5C 376.244,78.6515 366.411,78.8181 356.5,78C 355.171,52.8333 355.171,27.6667 356.5,2.5 Z"/></g>
</svg>
