<?xml version="1.0" encoding="UTF-8"?>
<!DOCTYPE svg PUBLIC "-//W3C//DTD SVG 1.1//EN" "http://www.w3.org/Graphics/SVG/1.1/DTD/svg11.dtd">
<svg xmlns="http://www.w3.org/2000/svg" version="1.1" width="1700px" height="1624px" style="shape-rendering:geometricPrecision; text-rendering:geometricPrecision; image-rendering:optimizeQuality; fill-rule:evenodd; clip-rule:evenodd" xmlns:xlink="http://www.w3.org/1999/xlink">
<g><path style="opacity:0.697" fill="#dac5f6" d="M 616.5,7.5 C 675.314,3.68026 724.814,23.0136 765,65.5C 789.733,94.9939 804.4,128.994 809,167.5C 814.919,231.159 801.585,290.492 769,345.5C 733.221,405.942 683.054,450.109 618.5,478C 571.584,497.407 523.584,500.74 474.5,488C 412.886,466.718 373.719,424.552 357,361.5C 344.295,302.097 350.628,244.764 376,189.5C 409.663,116.837 462.497,63.0034 534.5,28C 560.959,17.3853 588.292,10.552 616.5,7.5 Z"/></g>
<g><path style="opacity:0.697" fill="#dac5f6" d="M 1168.5,185.5 C 1216.14,182.259 1260.8,192.092 1302.5,215C 1354.65,248.096 1383.82,295.596 1390,357.5C 1393.09,413.133 1380.76,465.133 1353,513.5C 1295.67,608.447 1212.5,667.28 1103.5,690C 1055.8,698.33 1009.47,693.663 964.5,676C 891.884,641.336 854.55,583.503 852.5,502.5C 853.897,448.568 869.063,398.901 898,353.5C 952.705,270.162 1028.54,216.328 1125.5,192C 1139.87,189.115 1154.21,186.948 1168.5,185.5 Z"/></g>
<g><path style="opacity:0.698" fill="#dac5f6" d="M 725.5,1623.5 C 549.5,1623.5 373.5,1623.5 197.5,1623.5C 188.64,1601.42 181.473,1578.75 176,1555.5C 163.511,1495.06 150.511,1434.72 137,1374.5C 119.527,1301.57 88.1934,1235.57 43,1176.5C 28.6358,1158.64 14.1358,1140.98 -0.5,1123.5C -0.5,943.167 -0.5,762.833 -0.5,582.5C 62.5041,556.665 127.837,548.165 195.5,557C 238.864,562.341 280.864,573.008 321.5,589C 388.481,620.993 458.481,643.993 531.5,658C 584.245,667.949 636.912,678.282 689.5,689C 738.755,698.973 785.755,715.307 830.5,738C 875.821,763.654 910.655,799.488 935,845.5C 956.085,886.756 969.085,930.423 974,976.5C 977.241,1020.15 971.241,1062.48 956,1103.5C 942.678,1138.14 926.678,1171.48 908,1203.5C 888.08,1237.67 868.414,1272 849,1306.5C 814.011,1369.79 788.678,1436.79 773,1507.5C 761.303,1547.89 745.469,1586.56 725.5,1623.5 Z"/></g>
<g><path style="opacity:0.697" fill="#dac5f6" d="M 1401.5,759.5 C 1465.03,757.133 1524.69,770.966 1580.5,801C 1622.73,824.898 1654.23,858.732 1675,902.5C 1695.74,953.077 1695.08,1003.41 1673,1053.5C 1652.67,1097.17 1622.83,1133.01 1583.5,1161C 1496.73,1219.85 1401.39,1240.85 1297.5,1224C 1237.07,1213.7 1185.24,1187.2 1142,1144.5C 1087.88,1083.56 1075.55,1014.89 1105,938.5C 1125.59,893.57 1156.09,856.737 1196.5,828C 1258.27,785.687 1326.61,762.854 1401.5,759.5 Z"/></g>
<g><path style="opacity:0.697" fill="#dac5f6" d="M 1462.5,1623.5 C 1297.17,1623.5 1131.83,1623.5 966.5,1623.5C 939.231,1574.81 935.064,1524.14 954,1471.5C 973.695,1426.47 1005.19,1392.3 1048.5,1369C 1114.03,1335.59 1183.03,1325.59 1255.5,1339C 1322.37,1350.84 1378.87,1381.34 1425,1430.5C 1453.3,1462.11 1469.96,1499.11 1475,1541.5C 1477.44,1569.88 1473.27,1597.22 1462.5,1623.5 Z"/></g>
</svg>
